<?xml version="1.0" encoding="UTF-8" standalone="no"?>
<!-- Created with Inkscape (http://www.inkscape.org/) -->

<svg
   width="100mm"
   height="100mm"
   viewBox="0 0 100 100"
   version="1.1"
   id="svg5"
   inkscape:version="1.3 (0e150ed6c4, 2023-07-21)"
   sodipodi:docname="logo-light.svg"
   xmlns:inkscape="http://www.inkscape.org/namespaces/inkscape"
   xmlns:sodipodi="http://sodipodi.sourceforge.net/DTD/sodipodi-0.dtd"
   xmlns="http://www.w3.org/2000/svg"
   xmlns:svg="http://www.w3.org/2000/svg">
  <sodipodi:namedview
     id="namedview7"
     pagecolor="#ffffff"
     bordercolor="#666666"
     borderopacity="1.0"
     inkscape:pageshadow="2"
     inkscape:pageopacity="0.0"
     inkscape:pagecheckerboard="0"
     inkscape:document-units="mm"
     showgrid="false"
     width="100mm"
     inkscape:snap-grids="false"
     inkscape:snap-page="true"
     inkscape:snap-to-guides="false"
     inkscape:snap-others="true"
     inkscape:snap-nodes="false"
     inkscape:snap-global="true"
     inkscape:snap-bbox="true"
     inkscape:snap-bbox-midpoints="true"
     inkscape:snap-bbox-edge-midpoints="false"
     inkscape:bbox-nodes="false"
     inkscape:bbox-paths="false"
     inkscape:zoom="2"
     inkscape:cx="113.75"
     inkscape:cy="186.75"
     inkscape:window-width="1707"
     inkscape:window-height="994"
     inkscape:window-x="0"
     inkscape:window-y="0"
     inkscape:window-maximized="1"
     inkscape:current-layer="layer1"
     inkscape:showpageshadow="2"
     inkscape:deskcolor="#d1d1d1">
    <sodipodi:guide
       position="0,99.999999"
       orientation="0,377.95276"
       id="guide249"
       inkscape:locked="false" />
    <sodipodi:guide
       position="99.999999,99.999999"
       orientation="377.95276,0"
       id="guide251"
       inkscape:locked="false" />
    <sodipodi:guide
       position="99.999999,0"
       orientation="0,-377.95276"
       id="guide253"
       inkscape:locked="false" />
    <sodipodi:guide
       position="0,0"
       orientation="-377.95276,0"
       id="guide255"
       inkscape:locked="false" />
  </sodipodi:namedview>
  <defs
     id="defs2">
    <rect
       x="6"
       y="257.5"
       width="335.5"
       height="91"
       id="rect94432" />
    <inkscape:path-effect
       effect="copy_rotate"
       starting_point="0,0"
       origin="2,58.7"
       id="path-effect3230"
       is_visible="true"
       lpeversion="1"
       method="normal"
       num_copies="4"
       starting_angle="0"
       rotation_angle="90"
       gap="200"
       copies_to_360="true"
       mirror_copies="false"
       split_items="false" />
    <inkscape:path-effect
       effect="copy_rotate"
       starting_point="0,0"
       origin="2,43.9"
       id="path-effect3075"
       is_visible="true"
       lpeversion="1"
       method="normal"
       num_copies="2"
       starting_angle="0"
       rotation_angle="180"
       gap="200"
       copies_to_360="true"
       mirror_copies="false"
       split_items="false" />
    <inkscape:path-effect
       effect="copy_rotate"
       starting_point="0,0"
       origin="2,51.7"
       id="path-effect2921"
       is_visible="true"
       lpeversion="1"
       method="normal"
       num_copies="8"
       starting_angle="0"
       rotation_angle="60"
       gap="200"
       copies_to_360="true"
       mirror_copies="false"
       split_items="false" />
    <inkscape:path-effect
       effect="ellipse_5pts"
       id="path-effect2919"
       is_visible="true"
       lpeversion="1" />
    <inkscape:path-effect
       effect="copy_rotate"
       starting_point="0,0"
       origin="40.05,426.5"
       id="path-effect4947"
       is_visible="true"
       lpeversion="1"
       method="normal"
       num_copies="4"
       starting_angle="45"
       rotation_angle="90"
       gap="60"
       copies_to_360="false"
       mirror_copies="false"
       split_items="false" />
    <inkscape:path-effect
       effect="copy_rotate"
       starting_point="0,0"
       origin="40.05,280"
       id="path-effect4814"
       is_visible="true"
       lpeversion="1"
       method="normal"
       num_copies="2"
       starting_angle="90"
       rotation_angle="180"
       gap="60"
       copies_to_360="false"
       mirror_copies="false"
       split_items="false" />
    <inkscape:path-effect
       effect="copy_rotate"
       starting_point="0,0"
       origin="40.05,30"
       id="path-effect4419"
       is_visible="true"
       lpeversion="1"
       method="normal"
       num_copies="2"
       starting_angle="90"
       rotation_angle="180"
       gap="0"
       copies_to_360="false"
       mirror_copies="false"
       split_items="false" />
    <inkscape:path-effect
       effect="copy_rotate"
       starting_point="0,0"
       origin="40.05,350"
       id="path-effect4016"
       is_visible="true"
       lpeversion="1"
       method="normal"
       num_copies="8"
       starting_angle="0"
       rotation_angle="45"
       gap="60"
       copies_to_360="false"
       mirror_copies="false"
       split_items="false" />
    <inkscape:path-effect
       effect="copy_rotate"
       starting_point="0,0"
       origin="4.0307539,8.6717716"
       id="path-effect4014"
       is_visible="true"
       lpeversion="1"
       method="normal"
       num_copies="6"
       starting_angle="0"
       rotation_angle="60"
       gap="-0.01"
       copies_to_360="true"
       mirror_copies="false"
       split_items="false" />
    <inkscape:path-effect
       effect="copy_rotate"
       starting_point="0,0"
       origin="0,2.7755576e-17"
       id="path-effect3826"
       is_visible="true"
       lpeversion="1"
       method="normal"
       num_copies="4"
       starting_angle="0"
       rotation_angle="60"
       gap="-0.01"
       copies_to_360="true"
       mirror_copies="false"
       split_items="false" />
    <inkscape:path-effect
       effect="copy_rotate"
       starting_point="0,0"
       origin="0,200"
       id="path-effect3614"
       is_visible="true"
       lpeversion="1"
       method="normal"
       num_copies="4"
       starting_angle="0"
       rotation_angle="0"
       gap="0"
       copies_to_360="true"
       mirror_copies="false"
       split_items="false" />
    <inkscape:path-effect
       effect="offset"
       id="path-effect3612"
       is_visible="true"
       lpeversion="1"
       linejoin_type="miter"
       unit="mm"
       offset="0"
       miter_limit="4"
       attempt_force_join="false"
       update_on_knot_move="true" />
    <inkscape:path-effect
       effect="mirror_symmetry"
       start_point="-57.77,46.41"
       end_point="-73.074317,90.073445"
       center_point="-73.074317,68.239611"
       id="path-effect3510"
       is_visible="true"
       lpeversion="1.1"
       mode="free"
       discard_orig_path="false"
       fuse_paths="false"
       oposite_fuse="false"
       split_items="false"
       split_open="false" />
    <inkscape:path-effect
       effect="mirror_symmetry"
       start_point="-123.07,235"
       end_point="-23.07,235"
       center_point="-73.074317,68.239611"
       id="path-effect3347"
       is_visible="true"
       lpeversion="1.1"
       mode="free"
       discard_orig_path="false"
       fuse_paths="false"
       oposite_fuse="false"
       split_items="false"
       split_open="false" />
    <inkscape:path-effect
       effect="mirror_symmetry"
       start_point="-123.07,290"
       end_point="-23.07,290"
       center_point="-73.074317,68.239611"
       id="path-effect3161"
       is_visible="true"
       lpeversion="1.1"
       mode="free"
       discard_orig_path="false"
       fuse_paths="false"
       oposite_fuse="false"
       split_items="false"
       split_open="false" />
    <inkscape:path-effect
       effect="mirror_symmetry"
       start_point="-50,275"
       end_point="50,275"
       center_point="-73.074317,275"
       id="path-effect2751"
       is_visible="true"
       lpeversion="1.1"
       mode="Y"
       discard_orig_path="false"
       fuse_paths="false"
       oposite_fuse="false"
       split_items="false"
       split_open="false" />
    <inkscape:path-effect
       effect="mirror_symmetry"
       start_point="-50,275"
       end_point="50,275"
       center_point="-73.074317,68.239611"
       id="path-effect2749"
       is_visible="true"
       lpeversion="1.1"
       mode="free"
       discard_orig_path="false"
       fuse_paths="false"
       oposite_fuse="false"
       split_items="false"
       split_open="false" />
    <inkscape:path-effect
       effect="mirror_symmetry"
       start_point="-73.07,46.405777"
       end_point="-73.074317,90.073445"
       center_point="-73.074317,68.239611"
       id="path-effect2747"
       is_visible="true"
       lpeversion="1.1"
       mode="X"
       discard_orig_path="false"
       fuse_paths="false"
       oposite_fuse="false"
       split_items="false"
       split_open="false" />
    <inkscape:path-effect
       effect="mirror_symmetry"
       start_point="-96.031769,90.073445"
       end_point="-96.031769,46.405777"
       center_point="-96.031769,68.239611"
       id="path-effect2745"
       is_visible="true"
       lpeversion="1.1"
       mode="X"
       discard_orig_path="false"
       fuse_paths="false"
       oposite_fuse="false"
       split_items="false"
       split_open="false" />
    <inkscape:path-effect
       effect="mirror_symmetry"
       start_point="80.294866,17.463083"
       end_point="80.294866,85.807041"
       center_point="80.294866,51.635062"
       id="path-effect2618"
       is_visible="true"
       lpeversion="1.1"
       mode="free"
       discard_orig_path="false"
       fuse_paths="false"
       oposite_fuse="false"
       split_items="false"
       split_open="false" />
  </defs>
  <g
     inkscape:label="Text"
     inkscape:groupmode="layer"
     id="layer1">
    <g
       inkscape:groupmode="layer"
       id="layer3"
       inkscape:label="Background"
       style="display:inline">
      <circle
         style="display:inline;fill:#ffc000;fill-opacity:1;fill-rule:evenodd;stroke:#000000;stroke-width:1.40205;stroke-miterlimit:4;stroke-dasharray:none;stroke-opacity:1;paint-order:fill markers stroke"
         id="path359"
         cx="50"
         cy="50"
         r="48.974754" />
    </g>
    <circle
       style="display:none;fill:#333f50;fill-opacity:0;stroke:#00ff00;stroke-width:0.423098;stroke-miterlimit:4;stroke-dasharray:none;stroke-opacity:0.823293;paint-order:fill markers stroke"
       id="path1593-9-7"
       cx="-50.061256"
       cy="-50"
       r="46.932259"
       inkscape:label="bottompath"
       transform="matrix(0,-1,-1,0,0,0)" />
    <circle
       style="display:none;fill:#333f50;fill-opacity:0;stroke:#0000ff;stroke-width:0.327441;stroke-miterlimit:4;stroke-dasharray:none;stroke-opacity:1;paint-order:fill markers stroke"
       id="path1593-9"
       cx="50"
       cy="-50"
       r="36.321484"
       inkscape:label="toppath"
       transform="rotate(90)" />
    <path
       style="font-weight:bold;font-size:16.2278px;line-height:1.25;font-family:'OCR A Extended';-inkscape-font-specification:'OCR A Extended';letter-spacing:-0.828146px;stroke-width:0.264583"
       d="m 3.2530568,53.595136 -0.13609,-3.459995 q -0.024914,-0.633409 0.4913731,-1.216736 0.5080576,-0.590933 1.2681481,-0.620829 0.2850339,-0.01121 0.491071,0.186861 0.2057257,0.190155 0.2153796,0.435601 0.013391,0.340457 -0.1320608,0.473056 -0.1533695,0.13291 -0.5683315,0.268179 -0.4152734,0.127352 -0.3997024,0.523233 l 0.1292388,3.285807 q 0.00934,0.237528 0.1597771,0.231611 0.095011,-0.0037 0.2176446,-0.111648 l 6.1163206,-5.180871 q 0.445207,-0.374355 0.967769,-0.394908 0.593821,-0.02336 1.062253,0.394361 0.46812,0.4098 0.488985,0.940279 l 0.141073,3.586677 q 0.02803,0.712585 -0.489505,1.264241 -0.525761,0.54405 -1.175005,0.569587 -0.744255,0.02927 -0.77166,-0.667477 -0.01059,-0.269198 0.179878,-0.467006 0.182548,-0.197497 0.443829,-0.207774 0.213776,-0.0084 0.350687,-0.156531 0.1366,-0.15604 0.12788,-0.377733 l -0.130173,-3.30956 q -0.0084,-0.213776 -0.174678,-0.207236 -0.07918,0.0031 -0.201809,0.111026 L 5.8087173,54.660304 Q 5.371116,55.02643 4.8406362,55.047295 4.2230628,55.071586 3.7543196,54.64595 3.2776589,54.220627 3.2530568,53.595136 Z M 3.6169279,42.890248 4.7283718,37.617989 q 0.053938,-0.255859 0.2886327,-0.40883 0.2363294,-0.160725 0.4999423,-0.105153 0.2713663,0.05721 0.4320907,0.293536 0.1529711,0.234695 0.097399,0.498308 l -0.415157,1.969344 7.6835415,1.619766 0.415157,-1.969344 q 0.05721,-0.271366 0.290267,-0.416584 0.226942,-0.154605 0.498308,-0.0974 0.271366,0.05721 0.424337,0.291902 0.145218,0.23306 0.08965,0.496673 l -1.111444,5.272259 q -0.05721,0.271366 -0.284148,0.425972 -0.233061,0.145218 -0.504427,0.08801 -0.271366,-0.05721 -0.418218,-0.282514 -0.152971,-0.234695 -0.09577,-0.506061 L 13.040229,42.787518 5.3566875,41.167752 4.9349926,43.168109 Q 4.8777859,43.439475 4.643091,43.592446 4.4100305,43.737664 4.1464176,43.682092 3.867298,43.623251 3.7126924,43.396309 3.5597212,43.161614 3.6169279,42.890248 Z M 15.938922,36.972154 7.0768759,32.63819 Q 6.8348602,32.519832 6.7439349,32.254852 6.6530095,31.989872 6.7713668,31.747856 6.889724,31.505841 7.1547042,31.414915 7.4196843,31.32399 7.6617,31.442347 l 7.666204,3.74914 2.067771,-4.228157 q 0.121838,-0.249133 0.386818,-0.340059 0.261343,-0.101524 0.510477,0.02031 0.249134,0.121838 0.336578,0.393937 0.08381,0.261499 -0.03803,0.510633 z m -3.400975,-15.230473 3.47907,-4.114376 q 0.168837,-0.199669 0.448008,-0.223026 0.284287,-0.02941 0.490006,0.144546 0.211769,0.17907 0.241177,0.463357 0.02336,0.279171 -0.150597,0.48489 l -1.299535,1.536841 5.996099,5.070232 1.299535,-1.536841 q 0.179069,-0.211769 0.453124,-0.229076 0.27312,-0.02847 0.48489,0.150597 0.211769,0.17907 0.235126,0.458241 0.01731,0.274054 -0.156647,0.479773 l -3.47907,4.114376 q -0.17907,0.21177 -0.45219,0.240243 -0.274054,0.01731 -0.485824,-0.161763 -0.211769,-0.17907 -0.234192,-0.447074 -0.02336,-0.279171 0.155713,-0.49094 l 1.32,-1.561043 -5.996099,-5.070232 -1.32,1.561042 q -0.179069,0.21177 -0.45824,0.235127 -0.274055,0.01731 -0.479773,-0.156647 -0.21782,-0.184186 -0.246294,-0.457307 -0.02336,-0.279171 0.155713,-0.49094 z m 15.848552,-2.575655 1.951534,-1.398495 q 0.225425,-0.161542 0.50183,-0.115912 0.27823,0.03457 0.439772,0.259999 0.161543,0.225424 0.109472,0.506445 -0.05025,0.269964 -0.275671,0.431507 l -2.022381,1.449266 q -0.386443,0.276929 -0.974037,0.327574 -0.587594,0.05064 -0.96554,-0.136681 L 24.17117,18.969871 Q 23.546127,18.628178 23.15381,18.080718 22.719953,17.475292 22.63979,16.860109 L 22.189819,13.56597 q -0.05967,-0.464151 0.140331,-0.987652 0.195382,-0.529943 0.549621,-0.783795 l 2.138315,-1.532345 q 0.225424,-0.161543 0.495389,-0.111297 0.276405,0.04563 0.433332,0.264614 0.161542,0.225425 0.120527,0.508271 -0.03919,0.27179 -0.264614,0.433332 l -2.061026,1.476959 q -0.257628,0.18462 -0.201718,0.60272 l 0.408222,3.099849 q 0.04754,0.365609 0.306007,0.726289 0.272315,0.380002 0.634589,0.559062 l 2.724946,1.381163 q 0.405639,0.22597 0.772759,-0.03711 z M 34.76096,6.6952783 37.218476,8.9387334 q 0.510891,0.4546891 0.7719,1.1183436 0.255209,0.648906 0.193833,1.337177 l -0.28244,3.286996 q -0.07835,1.0781 -1.118075,1.487015 -0.494054,0.194306 -0.99375,0.09282 -0.492322,-0.104382 -0.845123,-0.416898 l -2.45329,-2.211059 q -0.484543,-0.430994 -0.754252,-1.11677 -0.269709,-0.685776 -0.211481,-1.338751 l 0.278214,-3.3193924 q 0.107845,-1.0897004 1.125448,-1.4899143 1.032351,-0.406014 1.8315,0.326974 z m -1.644119,1.3618363 -0.256429,3.1149904 q -0.02327,0.460421 0.124636,0.836492 0.159505,0.405566 0.481485,0.704661 l 2.35817,2.120751 q 0.198939,0.202738 0.471774,0.09543 0.235966,-0.0928 0.26562,-0.385444 l 0.289072,-3.161887 q 0.03064,-0.463321 -0.120162,-0.846766 -0.159506,-0.405567 -0.485959,-0.6943869 L 33.9206,7.7410037 Q 33.682139,7.5027219 33.416677,7.6071255 33.151216,7.7115291 33.116841,8.0571146 Z m 14.421262,-4.2904813 1.25364,9.7690877 -1.776198,0.227934 -4.593229,-7.6549096 0.956114,7.4505996 q 0.0353,0.275075 -0.135968,0.496771 -0.164417,0.212828 -0.439492,0.248128 -0.275075,0.0353 -0.495763,-0.12811 -0.213836,-0.172276 -0.249136,-0.447351 l -1.255657,-9.7848063 1.75262,-0.2249088 4.599071,7.6381831 -0.95208,-7.4191625 q -0.0353,-0.2750749 0.135968,-0.4967709 0.178119,-0.2305639 0.453194,-0.2658635 0.275075,-0.0353 0.488912,0.136977 0.221696,0.171268 0.258004,0.4542022 z m 12.6722,10.5342747 3.535152,-9.209875 5.636888,2.1636838 q 0.244117,0.093703 0.358067,0.3496271 0.121348,0.2587637 0.02481,0.5102784 -0.09938,0.2589122 -0.358146,0.3802599 -0.255924,0.1139503 -0.507439,0.017408 L 64.505522,6.825639 63.755899,8.7785764 66.90723,9.9881949 q 0.258912,0.099382 0.365465,0.3524661 0.11679,0.248527 0.01741,0.507439 -0.09938,0.258913 -0.355306,0.372863 -0.245687,0.109392 -0.504599,0.01001 l -3.151331,-1.209618 -1.825786,4.756586 q -0.09938,0.258912 -0.355306,0.372862 -0.245687,0.109393 -0.504599,0.01001 -0.258913,-0.09938 -0.375702,-0.347909 -0.106553,-0.253085 -0.0072,-0.511997 z m 17.568909,-0.850087 -0.521491,3.286415 q -0.09864,0.676773 -0.509253,1.259835 -0.401487,0.570104 -1.01001,0.897492 l -2.900273,1.572431 q -0.943398,0.527672 -1.856861,-0.11562 -0.434057,-0.305677 -0.624212,-0.77879 -0.183676,-0.468551 -0.116789,-0.935093 l 0.496763,-3.265063 q 0.09335,-0.641735 0.517647,-1.244232 0.424299,-0.602497 1.001616,-0.913096 l 2.925001,-1.593782 q 0.969312,-0.509423 1.863339,0.120182 0.906985,0.638729 0.734523,1.709321 z m -2.041723,-0.623771 -2.742325,1.499526 q -0.397288,0.233862 -0.629968,0.564263 -0.250929,0.356315 -0.323563,0.789735 l -0.473678,3.13595 q -0.05986,0.277662 0.179844,0.446469 0.207311,0.145995 0.468002,0.0098 l 2.799445,-1.498066 q 0.403766,-0.229299 0.641008,-0.566179 0.25093,-0.356316 0.312524,-0.787819 l 0.474863,-3.096349 q 0.0678,-0.33022 -0.165427,-0.494465 -0.233224,-0.164244 -0.540725,-0.0028 z m 0.192426,10.598302 7.480154,-6.431671 3.068605,3.568845 q 0.532098,0.61884 0.46377,1.450894 -0.06316,0.838062 -0.68801,1.375326 l -0.576783,0.495936 q -0.630856,0.54243 -1.463752,0.485276 -0.826888,-0.06232 -1.364152,-0.687167 l -0.552762,-0.642873 -1.767708,5.114746 q -0.07356,0.230447 -0.229768,0.364763 -0.204277,0.175644 -0.488797,0.148582 -0.278512,-0.03223 -0.44899,-0.230497 -0.2583,-0.300408 -0.122249,-0.68909 l 2.044976,-5.886103 -0.625086,-0.726987 -3.851228,3.311407 q -0.210286,0.18081 -0.494806,0.153748 -0.273345,-0.02622 -0.454155,-0.236505 -0.18081,-0.210286 -0.165765,-0.484474 0.02622,-0.273345 0.236506,-0.454156 z m 5.728486,-3.169924 2.200717,2.559475 q 0.18081,0.210285 0.448989,0.230497 0.279354,0.02105 0.48964,-0.159756 l 0.588799,-0.506269 q 0.210286,-0.18081 0.225331,-0.454997 0.02622,-0.273346 -0.15459,-0.483632 l -2.200716,-2.559474 z m 10.294158,11.900545 -2.102651,-4.21092 -2.899438,1.447785 0.906193,1.814807 q 0.120354,0.241029 0.03162,0.506752 -0.08873,0.265723 -0.329761,0.386077 -0.255207,0.127433 -0.52093,0.0387 -0.262183,-0.08164 -0.386076,-0.329761 l -0.906193,-1.814807 -2.920705,1.458404 2.10973,4.225098 q 0.120354,0.24103 0.03162,0.506752 -0.08164,0.262183 -0.329761,0.386077 -0.248118,0.123893 -0.51738,0.02807 -0.258634,-0.09227 -0.382528,-0.34039 l -2.69734,-5.401886 9.421401,-4.704417 2.697341,5.401887 q 0.123893,0.248118 0.02807,0.517381 -0.08519,0.272811 -0.33331,0.396705 -0.241029,0.120354 -0.510291,0.02453 -0.265723,-0.08873 -0.389617,-0.33685 z m 3.434052,6.085732 0.742315,3.382167 q 0.135893,0.619161 -0.269789,1.284175 -0.396244,0.671055 -1.139237,0.834127 -0.278622,0.06115 -0.516275,-0.09761 -0.235955,-0.151021 -0.288613,-0.390946 -0.07304,-0.332799 0.04683,-0.488906 0.127612,-0.157805 0.512326,-0.363927 0.386413,-0.198382 0.30148,-0.585358 L 94.070703,38.60353 q -0.05096,-0.232185 -0.198011,-0.199911 -0.09287,0.02038 -0.194624,0.148177 l -5.110125,6.175549 q -0.372452,0.446801 -0.88326,0.558912 -0.580463,0.1274 -1.115042,-0.201449 -0.53288,-0.32111 -0.64669,-0.839658 l -0.769494,-3.505999 q -0.15288,-0.696556 0.259597,-1.330613 0.421915,-0.628015 1.056555,-0.767305 0.727514,-0.159674 0.876996,0.521403 0.05776,0.263143 -0.09497,0.491358 -0.144981,0.226516 -0.400385,0.282572 -0.208967,0.04586 -0.317702,0.215751 -0.107037,0.177627 -0.05947,0.394333 l 0.710041,3.235116 q 0.04586,0.208967 0.208393,0.173295 0.0774,-0.01699 0.179145,-0.144779 l 5.111824,-6.16781 q 0.366411,-0.437362 0.884958,-0.551172 0.603682,-0.132496 1.13996,0.204093 0.544016,0.33489 0.678211,0.946312 z m -0.269082,9.87981 1.797822,0.05577 -0.208357,6.716092 -1.813661,-0.05627 q -0.277197,-0.0086 -0.469053,-0.21274 -0.183935,-0.203895 -0.175581,-0.473173 0.0086,-0.277197 0.212985,-0.476972 0.204141,-0.191856 0.473418,-0.183502 l 0.483115,0.01499 0.04177,-1.346386 -8.513914,-0.264131 q -0.277197,-0.0086 -0.469053,-0.212741 -0.183935,-0.203895 -0.175581,-0.473172 0.0088,-0.285117 0.205066,-0.477218 0.20414,-0.191856 0.481337,-0.183256 l 8.513915,0.264131 0.04177,-1.346386 -0.467275,-0.0145 q -0.277197,-0.0086 -0.469053,-0.21274 -0.184181,-0.195975 -0.175581,-0.473172 0.0086,-0.277197 0.20482,-0.469298 0.203895,-0.183936 0.481092,-0.175336 z"
       id="text47145"
       inkscape:label="toptext"
       aria-label="SILICON FOREST" />
    <path
       d="m 26.291221,89.016424 2.040097,1.265812 q 0.235655,0.146215 0.29954,0.41898 0.0748,0.270209 -0.07142,0.505864 -0.146216,0.235655 -0.425714,0.295362 -0.268587,0.05715 -0.504242,-0.08906 l -2.11416,-1.311765 q -0.403979,-0.250656 -0.676142,-0.773876 -0.272163,-0.52322 -0.244141,-0.94411 l 0.260397,-3.335327 q 0.0758,-0.708298 0.430894,-1.280603 0.392694,-0.632901 0.930069,-0.942907 l 2.869555,-1.679132 q 0.405758,-0.233143 0.965931,-0.249251 0.564351,-0.02284 0.934665,0.206926 l 2.235354,1.386961 q 0.235655,0.146216 0.292807,0.414803 0.06388,0.272765 -0.07815,0.501687 -0.146216,0.235655 -0.423158,0.306273 -0.266032,0.06806 -0.501687,-0.07815 l -2.154558,-1.33683 q -0.26932,-0.167104 -0.633991,0.04491 l -2.70614,1.566049 q -0.319408,0.184146 -0.553353,0.561193 -0.246478,0.397247 -0.272878,0.800494 l -0.230265,3.046296 q -0.05309,0.461288 0.330693,0.699411 z m 12.947651,1.531218 -1.204293,4.213081 q -0.07622,0.26665 -0.32113,0.402671 -0.24273,0.128403 -0.501763,0.05436 -0.274269,-0.0784 -0.412468,-0.315689 -0.136021,-0.244908 -0.0598,-0.511559 l 1.204293,-4.213081 -1.643009,-3.996835 0.387639,-1.356109 q 0.0784,-0.27427 0.315689,-0.412468 0.244908,-0.136022 0.511559,-0.0598 0.26665,0.07622 0.400494,0.328749 0.14364,0.247086 0.06742,0.513736 l -0.25044,0.876138 1.212118,3.024834 2.653771,-1.903302 0.254796,-0.891375 q 0.07622,-0.266651 0.321129,-0.402672 0.247087,-0.14364 0.506119,-0.0696 0.251413,0.07187 0.389612,0.309155 0.147995,0.231849 0.06306,0.528974 l -0.383283,1.340872 z m 14.138017,3.186451 -8.86e-4,0.586355 q -0.0017,1.101397 -0.787309,1.892584 -0.77771,0.783276 -1.879107,0.781612 l -4.072793,-0.0062 0.01591,-10.530626 4.072793,0.0062 q 1.101398,0.0017 1.876737,0.787285 0.783264,0.785634 0.781588,1.894955 l -8.5e-4,0.562584 q -0.0018,1.180635 -0.914269,2.011249 0.909948,0.849214 0.908188,2.014002 z m -1.356775,-4.043157 8.26e-4,-0.546737 q 8.38e-4,-0.554661 -0.39475,-0.951445 -0.387664,-0.396773 -0.934401,-0.397599 l -2.709912,-0.0041 -0.0049,3.224955 2.709913,0.0041 q 0.538813,8.14e-4 0.935585,-0.38685 0.396785,-0.395588 0.397611,-0.942324 z m -0.007,4.627453 8.38e-4,-0.55466 q 8.38e-4,-0.554661 -0.39475,-0.951446 -0.387663,-0.396772 -0.9344,-0.397598 l -2.694066,-0.0041 -0.0049,3.232878 2.694066,0.0041 q 0.538813,8.14e-4 0.935586,-0.38685 0.396784,-0.395587 0.39761,-0.942324 z m 10.924556,-8.68621 -4.529331,1.279902 0.881279,3.118681 1.952035,-0.551608 q 0.259254,-0.07326 0.503751,0.0635 0.244496,0.136761 0.317756,0.396015 0.07757,0.274505 -0.05919,0.519002 -0.129136,0.242341 -0.396016,0.317756 l -1.952034,0.551608 0.887743,3.141556 4.544581,-1.284211 q 0.259255,-0.07326 0.503751,0.0635 0.242342,0.129135 0.317757,0.396015 0.07541,0.26688 -0.06897,0.513531 -0.138915,0.236871 -0.405795,0.312286 L 59.624641,96.111606 56.761023,85.9778 62.571377,84.335906 q 0.26688,-0.07541 0.513531,0.06897 0.252121,0.134605 0.327536,0.401485 0.07326,0.259255 -0.07113,0.505906 -0.136761,0.244496 -0.40364,0.319911 z m 8.57409,5.518939 -5.175756,-8.398253 4.006878,-2.469397 q 0.694795,-0.428195 1.505761,-0.229912 0.817711,0.194127 1.250063,0.895668 L 73.49781,81.5968 q 0.436509,0.708286 0.249128,1.52184 -0.191538,0.806809 -0.893078,1.239161 l -0.721778,0.444824 4.773249,2.549807 q 0.216017,0.10887 0.324105,0.284255 0.141346,0.22935 0.06989,0.506077 -0.07561,0.269983 -0.298216,0.407171 -0.337279,0.207862 -0.69974,0.0124 l -5.491425,-2.944891 -0.816215,0.503025 2.664786,4.32392 q 0.145503,0.236096 0.07405,0.512823 -0.06887,0.265825 -0.304962,0.411329 -0.236095,0.145503 -0.504508,0.08754 -0.265825,-0.06887 -0.411328,-0.304961 z m -2.229944,-6.155594 2.873619,-1.770981 q 0.236096,-0.145503 0.298216,-0.407171 0.06471,-0.27257 -0.08079,-0.508666 l -0.407409,-0.661067 q -0.145503,-0.236096 -0.413916,-0.294059 -0.265825,-0.06887 -0.501921,0.07664 l -2.873619,1.770982 z"
       id="text5553"
       style="font-size:16.2278px;line-height:1.25;font-family:'OCR A Extended';-inkscape-font-specification:'OCR A Extended';letter-spacing:3.19352px;stroke-width:0.264583"
       inkscape:label="bottomtext"
       aria-label="CYBER" />
  </g>
  <g
     inkscape:groupmode="layer"
     id="layer2"
     inkscape:label="Electron"
     style="display:inline">
    <circle
       style="display:none;fill:#333f50;fill-opacity:1;stroke:#000000;stroke-width:0.35;stroke-miterlimit:4;stroke-dasharray:none;stroke-opacity:1;paint-order:fill markers stroke"
       id="path1593"
       cx="50"
       cy="50"
       r="38.823578"
       inkscape:label="ring3" />
    <circle
       style="display:inline;fill:#333f50;fill-opacity:1;stroke:#000000;stroke-width:0.35678;stroke-miterlimit:4;stroke-dasharray:none;stroke-opacity:1;paint-order:fill markers stroke"
       id="path1719"
       cx="50"
       cy="50"
       r="34.628929"
       inkscape:label="ring2" />
    <circle
       style="display:none;fill:#333f50;fill-opacity:1;stroke:#000000;stroke-width:0.35;stroke-miterlimit:4;stroke-dasharray:none;stroke-opacity:1;paint-order:fill markers stroke"
       id="path1719-0"
       cx="50"
       cy="50"
       r="28.868217"
       inkscape:label="ring1" />
    <path
       style="display:none;fill:#84a4d0;fill-opacity:1;stroke:#000000;stroke-width:0.349999;stroke-opacity:1;paint-order:fill markers stroke"
       id="path1118-4"
       inkscape:path-effect="#path-effect3075"
       sodipodi:type="arc"
       sodipodi:cx="2.0270829"
       sodipodi:cy="2.0270829"
       sodipodi:rx="1.8520833"
       sodipodi:ry="1.8520833"
       transform="matrix(0.68569724,0,0,0.68476667,48.628606,20)"
       d="m 3.8791662,2.0270829 c 0,1.0228774 -0.8292059,1.8520833 -1.8520833,1.8520833 -1.0228774,0 -1.85208331,-0.8292059 -1.85208331,-1.8520833 0,-1.0228774 0.82920591,-1.85208331 1.85208331,-1.85208331 1.0228774,0 1.8520833,0.82920591 1.8520833,1.85208331 z M 0.12083375,85.772917 c 0,-1.022877 0.82920595,-1.852083 1.85208335,-1.852083 1.0228774,0 1.8520833,0.829206 1.8520833,1.852083 0,1.022877 -0.8292059,1.852083 -1.8520833,1.852083 -1.0228774,0 -1.85208335,-0.829206 -1.85208335,-1.852083 z"
       inkscape:label="elec1" />
    <path
       style="display:none;fill:#84a4d0;fill-opacity:1;stroke:#000000;stroke-width:0.349999;stroke-opacity:1;paint-order:fill markers stroke"
       id="path1118"
       inkscape:path-effect="#path-effect2921"
       sodipodi:type="arc"
       sodipodi:cx="2.0270829"
       sodipodi:cy="2.0270829"
       sodipodi:rx="1.8520833"
       sodipodi:ry="1.8520833"
       d="m 3.8791662,2.0270829 c 0,1.0228774 -0.8292059,1.8520833 -1.8520833,1.8520833 -1.0228774,0 -1.85208331,-0.8292059 -1.85208331,-1.8520833 0,-1.0228774 0.82920591,-1.85208331 1.85208331,-1.85208331 1.0228774,0 1.8520833,0.82920591 1.8520833,1.85208331 z M -31.795285,15.247172 c 0.723283,0.723284 0.723283,1.895958 0,2.619242 -0.723284,0.723283 -1.895958,0.723283 -2.619242,0 -0.723283,-0.723284 -0.723283,-1.895958 0,-2.619242 0.723284,-0.723283 1.895958,-0.723283 2.619242,0 z m -15.877632,34.573662 c 1.022877,0 1.852083,0.829206 1.852083,1.852083 0,1.022877 -0.829206,1.852083 -1.852083,1.852083 -1.022877,0 -1.852083,-0.829206 -1.852083,-1.852083 0,-1.022877 0.829206,-1.852083 1.852083,-1.852083 z m 13.220089,35.674451 c 0.723284,-0.723283 1.895958,-0.723283 2.619242,0 0.723283,0.723284 0.723283,1.895958 0,2.619242 -0.723284,0.723283 -1.895958,0.723283 -2.619242,0 -0.723283,-0.723284 -0.723283,-1.895958 0,-2.619242 z M 0.12083375,101.37292 c 0,-1.02288 0.82920595,-1.852086 1.85208335,-1.852086 1.0228774,0 1.8520833,0.829206 1.8520833,1.852086 0,1.02287 -0.8292059,1.85208 -1.8520833,1.85208 -1.0228774,0 -1.85208335,-0.82921 -1.85208335,-1.85208 z M 35.795285,88.152828 c -0.723283,-0.723284 -0.723283,-1.895958 0,-2.619242 0.723284,-0.723283 1.895958,-0.723283 2.619242,0 0.723283,0.723284 0.723283,1.895958 0,2.619242 -0.723284,0.723283 -1.895958,0.723283 -2.619242,0 z M 51.672917,53.579166 c -1.022877,0 -1.852083,-0.829206 -1.852083,-1.852083 0,-1.022877 0.829206,-1.852083 1.852083,-1.852083 1.022877,0 1.852083,0.829206 1.852083,1.852083 0,1.022877 -0.829206,1.852083 -1.852083,1.852083 z M 38.452828,17.904715 c -0.723284,0.723283 -1.895958,0.723283 -2.619242,0 -0.723283,-0.723284 -0.723283,-1.895958 0,-2.619242 0.723284,-0.723283 1.895958,-0.723283 2.619242,0 0.723283,0.723284 0.723283,1.895958 0,2.619242 z"
       transform="matrix(0.67698259,0,0,0.67606385,48.646035,15)"
       inkscape:label="elec2" />
    <path
       style="display:none;fill:#84a4d0;fill-opacity:1;stroke:#000000;stroke-width:0.349999;stroke-opacity:1;paint-order:fill markers stroke"
       id="path1118-9"
       inkscape:path-effect="#path-effect3230"
       sodipodi:type="arc"
       sodipodi:cx="2.0270829"
       sodipodi:cy="2.0270829"
       sodipodi:rx="1.8520833"
       sodipodi:ry="1.8520833"
       transform="matrix(0.68143101,0,0,0.68050623,48.637138,9.9999999)"
       d="m 3.8791662,2.0270829 c 0,1.0228774 -0.8292059,1.8520833 -1.8520833,1.8520833 -1.0228774,0 -1.85208331,-0.8292059 -1.85208331,-1.8520833 0,-1.0228774 0.82920591,-1.85208331 1.85208331,-1.85208331 1.0228774,0 1.8520833,0.82920591 1.8520833,1.85208331 z M -54.672917,56.820834 c 1.022877,0 1.852083,0.829206 1.852083,1.852083 0,1.022877 -0.829206,1.852083 -1.852083,1.852083 -1.022877,0 -1.852083,-0.829206 -1.852083,-1.852083 0,-1.022877 0.829206,-1.852083 1.852083,-1.852083 z M 0.12083375,115.37292 c 0,-1.02288 0.82920595,-1.85209 1.85208335,-1.85209 1.0228774,0 1.8520833,0.82921 1.8520833,1.85209 0,1.02287 -0.8292059,1.85208 -1.8520833,1.85208 -1.0228774,0 -1.85208335,-0.82921 -1.85208335,-1.85208 z M 58.672917,60.579166 c -1.022877,0 -1.852083,-0.829206 -1.852083,-1.852083 0,-1.022877 0.829206,-1.852083 1.852083,-1.852083 1.022877,0 1.852083,0.829206 1.852083,1.852083 0,1.022877 -0.829206,1.852083 -1.852083,1.852083 z"
       inkscape:label="elec3" />
  </g>
  <g
     style="display:inline;opacity:1;fill:#3ad242;fill-opacity:1;fill-rule:nonzero"
     id="g1959"
     transform="matrix(0.10202279,0,0,0.10202279,24.411336,23.352568)"
     inkscape:label="Perilla">
    <g
       id="g1949"
       style="fill:#3ad242;fill-opacity:1;fill-rule:nonzero">
      <path
         class="st0"
         d="m 511.961,190.268 -0.019,-0.004 0.058,-0.148 -20.961,-5.122 -0.394,-0.098 19.461,-71.558 L 478.54,104.467 478.212,33.791 407.536,33.459 398.665,1.897 328.75,20.908 327.101,21.35 322.5,2.514 321.946,0.151 321.926,0.158 321.891,0.002 251.102,27.068 242.418,9.85 241.668,8.33 241.656,8.338 241.582,8.193 178.508,47.232 163.211,31.935 98.668,89.924 76.523,83.662 48.492,153.209 26.27,149.576 24.239,149.228 v 0.016 l -0.16,-0.027 -6.094,86.945 L 0,245.404 c 0,0 20.844,75.305 22.988,79.718 2.145,4.41 -7.102,22.395 -7.102,22.395 l 49.559,82.902 -54.262,47.914 c -2.038,1.805 -2.199,4.894 -0.343,6.75 l 16.074,16.074 c 1.851,1.852 4.945,1.695 6.75,-0.343 l 47.746,-54.074 79.828,50.875 12.926,8.266 0.012,-0.024 0.137,0.086 c 0,0 8.152,-19.078 12.562,-16.934 4.414,2.144 79.718,22.988 79.718,22.988 l 9.242,-17.984 79.446,-5.566 7.339,-0.5 v -0.012 l 0.161,-0.012 -3.993,-24.418 69.547,-28.027 -6.262,-22.145 57.988,-64.547 -15.297,-15.293 35.859,-57.938 3.106,-4.996 -0.012,-0.004 0.086,-0.137 -18.873,-9.518 24.031,-62.848 z m -359.551,157.093 0.019,-0.019 c 0.031,0.043 0.062,0.094 0.094,0.133 l 57.555,-56.074 c -0.133,-0.203 -0.219,-0.324 -0.375,-0.562 -0.082,-0.125 -0.168,-0.254 -0.25,-0.39 -0.015,-0.02 -0.042,-0.062 -0.054,-0.086 -0.481,-0.766 -1.25,-1.976 -2.25,-3.574 -2.414,-3.898 -5.798,-9.742 -9.688,-16.949 -0.453,-0.84 -0.914,-1.703 -1.375,-2.582 -3.437,-6.519 -7.148,-14.046 -10.762,-22.23 -1.973,-4.629 -4.113,-9.363 -5.926,-14.355 -1.961,-4.946 -3.774,-10.051 -5.379,-15.246 -0.234,-0.668 -0.461,-1.343 -0.679,-2.019 -1.454,-4.485 -2.586,-9.094 -3.774,-13.602 -1.457,-5.168 -2.156,-10.484 -3.195,-15.504 -0.821,-5.082 -1.172,-10.098 -1.707,-14.789 -0.176,-4.742 -0.114,-9.242 -0.141,-13.379 0.227,-4.168 0.786,-7.98 1.129,-11.344 0.188,-2.906 0.962,-5.367 1.516,-7.484 0.09,-0.355 0.176,-0.707 0.246,-1.047 0.656,-3 1.187,-5.094 1.566,-6.046 0.234,-0.746 0.359,-1.188 0.355,-1.29 0.707,-2.258 3.008,-3.609 5.254,-3.152 1.637,0.332 2.821,1.551 3.211,3.054 0.016,0.066 0.05,0.114 0.062,0.18 0.098,0.461 0.094,0.95 0.027,1.446 -0.004,0.07 0,0.137 -0.004,0.206 l -0.179,0.614 c 0,0 -0.477,2.414 -1.313,6.645 -0.359,2.121 -1.16,4.57 -1.187,7.64 -0.141,3.055 -0.473,6.462 -0.5,10.219 0.23,3.766 0.371,7.828 0.73,12.117 0.726,4.317 1.254,8.867 2.246,13.535 1.215,4.637 2.063,9.477 3.676,14.27 1.531,4.821 2.969,9.734 4.922,14.516 1.758,4.847 3.722,9.617 5.835,14.254 1.969,4.691 4.266,9.164 6.383,13.523 4.098,8.165 8.278,15.637 12.082,22.004 0.238,0.398 0.476,0.797 0.71,1.192 4.094,6.754 7.625,12.214 10.118,15.828 0.476,0.675 0.863,1.23 1.234,1.758 l 0.05,0.114 0.02,-0.016 c 0.027,0.039 0.066,0.094 0.09,0.133 l 53.82,-52.438 c -0.109,-0.148 -0.195,-0.258 -0.316,-0.43 -0.074,-0.11 -0.153,-0.222 -0.226,-0.34 -0.008,-0.011 -0.043,-0.066 -0.051,-0.074 -0.238,-0.383 -0.875,-1.367 -1.809,-2.856 -1.898,-3.05 -4.754,-7.863 -8.082,-13.886 -0.39,-0.715 -0.79,-1.446 -1.195,-2.188 -2.879,-5.301 -6.028,-11.437 -9.157,-18.105 -1.714,-3.734 -3.523,-7.582 -5.16,-11.594 -1.73,-4.019 -3.378,-8.16 -4.898,-12.359 -0.211,-0.543 -0.418,-1.09 -0.617,-1.637 -1.352,-3.64 -2.524,-7.347 -3.699,-11 -1.395,-4.195 -2.379,-8.453 -3.493,-12.519 -1.007,-4.106 -1.738,-8.133 -2.507,-11.93 -0.59,-3.813 -1.012,-7.434 -1.422,-10.77 -0.309,-3.41 -0.394,-6.527 -0.523,-9.278 -0.164,-2.355 0.012,-4.386 0.121,-6.117 0.012,-0.301 0.024,-0.594 0.027,-0.875 0.004,-2.734 0.082,-4.477 0.274,-4.953 0.074,-0.524 0.122,-0.898 0.122,-1.098 0.359,-1.89 2.027,-3.266 3.922,-3.285 2.019,-0.019 3.652,1.492 3.738,3.481 l -0.07,0.398 c 0,0 0.023,2 0.062,5.5 0.031,1.742 -0.102,3.785 0.211,6.25 0.274,2.5 0.508,5.305 0.953,8.375 0.555,3.035 1.114,6.305 1.828,9.746 0.914,3.484 1.778,7.148 2.91,10.91 1.242,3.738 2.34,7.618 3.855,11.481 1.489,3.906 2.962,7.875 4.719,11.762 1.656,3.938 3.445,7.828 5.312,11.61 1.801,3.82 3.774,7.496 5.641,11.054 3.574,6.68 7.149,12.801 10.367,18.008 0.203,0.332 0.402,0.66 0.606,0.984 3.55,5.699 6.566,10.223 8.586,13.118 0.387,0.546 0.672,0.949 0.958,1.347 l 0.125,0.223 0.019,-0.02 c 0.028,0.039 0.066,0.098 0.094,0.133 l 52.839,-51.48 c -0.492,-0.825 -3.304,-5.594 -6.808,-12.633 -3.918,-7.754 -8.703,-18.352 -12.746,-29.363 -4.098,-10.981 -7.406,-22.387 -9.406,-31.145 -1.031,-4.367 -1.75,-8.062 -2.176,-10.684 -0.468,-2.602 -0.734,-4.09 -0.734,-4.09 -0.294,-1.637 0.882,-3.508 2.629,-4.172 1.679,-0.637 3.273,0.078 3.652,1.594 l 0.031,0.13 c 0,0 0.348,1.41 0.957,3.882 0.566,2.481 1.485,5.985 2.75,10.114 2.469,8.285 6.375,19.042 11.039,29.355 4.609,10.344 9.934,20.246 14.21,27.434 2.551,4.336 4.633,7.562 5.938,9.527 0.082,0.141 0.203,0.336 0.274,0.465 l 0.02,-0.023 c 0.027,0.039 0.066,0.098 0.09,0.137 l 73.457,-71.57 c 1.461,-1.426 3.758,-1.438 5.129,-0.027 1.348,1.386 1.297,3.633 -0.094,5.062 l -60.5,62.09 -10.984,11.234 c 0.007,0.004 0.019,0.012 0.027,0.016 l -0.114,0.117 c 1.875,1.254 5.367,3.535 10.102,6.321 7.187,4.277 17.09,9.602 27.438,14.21 10.309,4.664 21.066,8.57 29.351,11.039 4.133,1.266 7.633,2.184 10.118,2.75 2.469,0.605 3.879,0.953 3.879,0.953 l 0.129,0.035 c 0.266,0.066 0.469,0.211 0.683,0.344 0.16,0.102 0.305,0.206 0.438,0.339 0.676,0.707 0.914,1.805 0.473,2.969 -0.133,0.348 -0.34,0.649 -0.554,0.942 -0.102,0.137 -0.196,0.274 -0.313,0.394 -0.309,0.332 -0.653,0.606 -1.035,0.821 -0.457,0.238 -0.981,0.371 -1.543,0.449 -0.242,0.016 -0.488,0.066 -0.726,0.023 0,0 -1.488,-0.266 -4.086,-0.734 -2.626,-0.426 -6.321,-1.145 -10.688,-2.176 -8.758,-2.004 -20.16,-5.309 -31.141,-9.406 -11.015,-4.043 -21.609,-8.832 -29.367,-12.746 -7.034,-3.504 -11.804,-6.316 -12.629,-6.808 l -44.453,45.625 -6.938,7.082 0.019,0.016 -0.109,0.117 c 0.473,0.336 0.996,0.707 1.683,1.196 2.891,2.019 7.414,5.031 13.118,8.582 0.324,0.203 0.652,0.406 0.984,0.61 5.203,3.218 11.324,6.789 18.004,10.367 3.558,1.867 7.234,3.84 11.054,5.637 3.782,1.867 7.672,3.656 11.61,5.316 3.89,1.754 7.855,3.23 11.762,4.719 3.867,1.511 7.742,2.613 11.481,3.855 3.762,1.133 7.426,1.996 10.91,2.906 3.445,0.718 6.71,1.277 9.746,1.828 3.074,0.446 5.875,0.68 8.375,0.953 2.469,0.313 4.512,0.184 6.25,0.215 3.5,0.039 5.5,0.062 5.5,0.062 l 0.399,-0.07 c 1.988,0.086 3.503,1.719 3.484,3.738 -0.019,1.894 -1.394,3.562 -3.285,3.922 -0.199,0 -0.574,0.047 -1.102,0.122 -0.477,0.191 -2.219,0.27 -4.954,0.27 -0.281,0.007 -0.574,0.019 -0.875,0.031 -1.73,0.109 -3.762,0.285 -6.117,0.121 -2.75,-0.129 -5.867,-0.214 -9.278,-0.523 -3.336,-0.41 -6.957,-0.832 -10.766,-1.422 -3.797,-0.769 -7.824,-1.503 -11.934,-2.507 -4.066,-1.114 -8.324,-2.098 -12.519,-3.496 -3.649,-1.172 -7.359,-2.344 -11,-3.696 -0.547,-0.203 -1.094,-0.406 -1.633,-0.617 -4.203,-1.523 -8.344,-3.172 -12.359,-4.898 -4.016,-1.641 -7.864,-3.45 -11.594,-5.164 -6.671,-3.129 -12.808,-6.274 -18.105,-9.157 -0.746,-0.402 -1.477,-0.8 -2.188,-1.195 -6.023,-3.328 -10.84,-6.183 -13.886,-8.082 -1.489,-0.934 -2.473,-1.566 -2.856,-1.809 -0.011,-0.008 -0.066,-0.043 -0.074,-0.047 -0.118,-0.078 -0.23,-0.156 -0.344,-0.23 -0.172,-0.117 -0.278,-0.206 -0.43,-0.312 l -45.023,46.21 -7.321,7.473 0.023,0.016 -0.113,0.117 c 0.582,0.406 1.218,0.859 1.988,1.394 3.61,2.493 9.07,6.024 15.828,10.118 0.391,0.234 0.79,0.473 1.188,0.714 6.367,3.805 13.84,7.981 22.004,12.082 4.359,2.114 8.832,4.414 13.523,6.379 4.637,2.113 9.41,4.078 14.254,5.839 4.782,1.95 9.695,3.387 14.516,4.922 4.793,1.613 9.633,2.461 14.27,3.676 4.668,0.988 9.218,1.519 13.535,2.246 4.289,0.355 8.351,0.496 12.117,0.73 3.758,-0.027 7.164,-0.363 10.219,-0.5 3.07,-0.027 5.519,-0.828 7.64,-1.187 4.231,-0.836 6.645,-1.313 6.645,-1.313 l 0.649,-0.191 c 2.273,-0.394 4.394,1.05 4.851,3.309 0.457,2.242 -0.894,4.546 -3.152,5.25 -0.102,0 -0.543,0.125 -1.29,0.359 -0.953,0.379 -3.042,0.906 -6.046,1.563 -0.34,0.074 -0.692,0.16 -1.047,0.246 -2.117,0.555 -4.578,1.332 -7.484,1.516 -3.363,0.347 -7.172,0.902 -11.344,1.133 -4.133,-0.027 -8.637,0.031 -13.379,-0.141 -4.691,-0.535 -9.706,-0.886 -14.789,-1.707 -5.019,-1.039 -10.336,-1.742 -15.504,-3.195 -4.508,-1.191 -9.113,-2.32 -13.602,-3.778 -0.676,-0.218 -1.347,-0.441 -2.019,-0.675 -5.195,-1.606 -10.301,-3.422 -15.246,-5.383 -4.992,-1.813 -9.726,-3.949 -14.355,-5.922 -8.184,-3.618 -15.711,-7.325 -22.23,-10.762 -0.879,-0.465 -1.742,-0.922 -2.582,-1.375 -7.207,-3.89 -13.05,-7.278 -16.949,-9.688 -1.594,-1.003 -2.809,-1.773 -3.574,-2.254 -0.02,-0.012 -0.066,-0.039 -0.086,-0.054 -0.136,-0.082 -0.262,-0.168 -0.39,-0.25 -0.238,-0.156 -0.359,-0.242 -0.558,-0.375 l -48.086,49.352 -7.902,8.074 0.023,0.011 -0.114,0.118 c 0.688,0.477 1.383,0.965 2.215,1.539 4.332,2.965 10.726,7.015 18.539,11.648 7.824,4.614 17.144,9.711 27.394,14.622 5.16,2.363 10.434,4.988 15.992,7.121 2.094,0.898 4.305,1.594 6.442,2.426 1.378,0.535 2.746,1.051 4.121,1.551 2.129,0.773 4.18,1.687 6.336,2.382 5.68,2.145 11.539,3.551 17.274,5.129 5.718,1.715 11.519,2.309 17.058,3.493 5.57,0.847 11.008,1.046 16.156,1.586 5.133,0 9.989,-0.278 14.493,-0.367 4.441,-0.5 8.453,-1.402 12.062,-1.953 3.672,-0.364 6.527,-1.84 9.031,-2.59 4.953,-1.707 7.785,-2.683 7.785,-2.683 l 0.902,-0.313 c 2.551,-0.871 5.297,0.371 6.219,2.875 0.953,2.586 -0.402,5.531 -3.024,6.582 0,0 -3.133,1.258 -8.621,3.458 -2.774,0.98 -6.039,2.742 -10.066,3.371 -3.981,0.82 -8.481,2.015 -13.41,2.789 -4.934,0.351 -10.316,0.894 -15.984,1.133 -5.594,-0.297 -11.59,-0.27 -17.653,-0.906 -5.972,-0.965 -12.347,-1.379 -18.484,-2.894 -6.176,-1.386 -12.535,-2.625 -18.606,-4.59 -6.195,-1.692 -12.266,-3.672 -18.133,-5.867 -5.973,-1.989 -11.594,-4.454 -17.125,-6.684 -10.965,-4.633 -20.93,-9.492 -29.328,-13.922 -8.391,-4.454 -15.266,-8.367 -20.016,-11.293 -2.336,-1.465 -4.16,-2.614 -5.438,-3.41 l -35.484,36.422 c -3.766,3.863 -9.836,4.058 -13.558,0.438 -3.723,-3.621 -3.692,-9.687 0.074,-13.55 0.051,-0.055 0.133,-0.137 0.184,-0.188 l 36.422,-35.484 c -0.801,-1.274 -1.945,-3.102 -3.41,-5.438 -2.926,-4.75 -6.84,-11.625 -11.294,-20.016 -4.43,-8.398 -9.289,-18.363 -13.922,-29.332 -2.226,-5.527 -4.695,-11.152 -6.684,-17.121 -2.195,-5.867 -4.175,-11.938 -5.867,-18.133 -1.965,-6.074 -3.202,-12.43 -4.586,-18.606 -1.519,-6.137 -1.934,-12.512 -2.898,-18.484 -0.637,-6.062 -0.61,-12.059 -0.906,-17.653 0.242,-5.668 0.782,-11.05 1.137,-15.984 0.77,-4.93 1.969,-9.43 2.789,-13.41 0.626,-4.027 2.387,-7.293 3.371,-10.066 2.199,-5.488 3.454,-8.621 3.454,-8.621 1.05,-2.622 4,-3.977 6.586,-3.024 2.5,0.922 3.746,3.664 2.871,6.219 l -0.313,0.902 c 0,0 -0.972,2.832 -2.679,7.785 -0.75,2.504 -2.23,5.359 -2.59,9.031 -0.55,3.61 -1.457,7.622 -1.957,12.062 -0.086,4.504 -0.363,9.36 -0.367,14.493 0.543,5.148 0.738,10.586 1.586,16.156 1.183,5.539 1.781,11.34 3.492,17.058 1.582,5.734 2.984,11.594 5.129,17.274 0.699,2.156 1.614,4.211 2.386,6.336 0.496,1.375 1.012,2.738 1.547,4.114 0.832,2.136 1.527,4.355 2.426,6.449 2.133,5.558 4.758,10.832 7.122,15.992 4.91,10.25 10.007,19.57 14.621,27.394 4.633,7.813 8.683,14.207 11.648,18.539 0.481,0.695 0.883,1.278 1.29,1.856 z"
         style="fill:#3ad242;fill-opacity:1;fill-rule:nonzero"
         id="path1947" />
    </g>
  </g>
  <style
     type="text/css"
     id="style27">&#10;	.st0{fill:#374149;}&#10;</style>
  <style
     type="text/css"
     id="style1945">&#10;	.st0{fill:#374149;}&#10;</style>
</svg>
